<mxfile host="app.diagrams.net" agent="Mozilla/5.0 (Windows NT 10.0; Win64; x64) AppleWebKit/537.36 (KHTML, like Gecko) Chrome/122.0.0.0 Safari/537.36" version="24.7.16">
  <diagram name="Page-1" id="yDt01ANhyej5JqWS6dFk">
    <mxGraphModel dx="1260" dy="-317" grid="1" gridSize="10" guides="1" tooltips="1" connect="1" arrows="1" fold="1" page="1" pageScale="1" pageWidth="850" pageHeight="1100" math="0" shadow="0">
      <root>
        <mxCell id="0" />
        <mxCell id="1" parent="0" />
        <mxCell id="Hb1TKC1Pl9qgVDZg1J_4-85" value="&lt;font color=&quot;#b266ff&quot;&gt;6379&lt;/font&gt;" style="edgeStyle=orthogonalEdgeStyle;rounded=0;orthogonalLoop=1;jettySize=auto;html=1;flowAnimation=1;fillColor=#a20025;strokeColor=#6F0000;entryX=1;entryY=0.5;entryDx=0;entryDy=0;" edge="1" parent="1" source="Hb1TKC1Pl9qgVDZg1J_4-86" target="Hb1TKC1Pl9qgVDZg1J_4-99">
          <mxGeometry relative="1" as="geometry">
            <mxPoint x="230" y="1890" as="targetPoint" />
            <Array as="points">
              <mxPoint x="220" y="1890" />
            </Array>
          </mxGeometry>
        </mxCell>
        <mxCell id="Hb1TKC1Pl9qgVDZg1J_4-86" value="User" style="rounded=0;whiteSpace=wrap;html=1;fillColor=#a20025;strokeColor=#6F0000;fontColor=#ffffff;" vertex="1" parent="1">
          <mxGeometry x="460" y="1860" width="120" height="60" as="geometry" />
        </mxCell>
        <mxCell id="Hb1TKC1Pl9qgVDZg1J_4-87" style="edgeStyle=orthogonalEdgeStyle;rounded=0;orthogonalLoop=1;jettySize=auto;html=1;entryX=0.5;entryY=1;entryDx=0;entryDy=0;flowAnimation=1;fillColor=#dae8fc;strokeColor=#6c8ebf;gradientColor=#7ea6e0;" edge="1" parent="1" source="Hb1TKC1Pl9qgVDZg1J_4-89" target="Hb1TKC1Pl9qgVDZg1J_4-99">
          <mxGeometry relative="1" as="geometry">
            <Array as="points">
              <mxPoint x="180" y="2030" />
            </Array>
          </mxGeometry>
        </mxCell>
        <mxCell id="Hb1TKC1Pl9qgVDZg1J_4-88" value="&lt;font color=&quot;#b266ff&quot;&gt;6379&lt;/font&gt;" style="edgeLabel;html=1;align=center;verticalAlign=middle;resizable=0;points=[];" vertex="1" connectable="0" parent="Hb1TKC1Pl9qgVDZg1J_4-87">
          <mxGeometry x="0.1223" y="2" relative="1" as="geometry">
            <mxPoint y="-2" as="offset" />
          </mxGeometry>
        </mxCell>
        <mxCell id="Hb1TKC1Pl9qgVDZg1J_4-89" value="Cart" style="rounded=0;whiteSpace=wrap;html=1;fillColor=#dae8fc;gradientColor=#7ea6e0;strokeColor=#6c8ebf;" vertex="1" parent="1">
          <mxGeometry x="460" y="2000" width="120" height="60" as="geometry" />
        </mxCell>
        <mxCell id="Hb1TKC1Pl9qgVDZg1J_4-90" value="Catalogue" style="rounded=0;whiteSpace=wrap;html=1;fillColor=#e1d5e7;strokeColor=#CC99FF;" vertex="1" parent="1">
          <mxGeometry x="460" y="1720" width="120" height="60" as="geometry" />
        </mxCell>
        <mxCell id="Hb1TKC1Pl9qgVDZg1J_4-91" style="edgeStyle=orthogonalEdgeStyle;rounded=0;orthogonalLoop=1;jettySize=auto;html=1;entryX=1;entryY=0.5;entryDx=0;entryDy=0;flowAnimation=1;fillColor=#fad7ac;strokeColor=#b46504;" edge="1" parent="1" source="Hb1TKC1Pl9qgVDZg1J_4-95" target="Hb1TKC1Pl9qgVDZg1J_4-101">
          <mxGeometry relative="1" as="geometry">
            <mxPoint x="100" y="2150" as="targetPoint" />
          </mxGeometry>
        </mxCell>
        <mxCell id="Hb1TKC1Pl9qgVDZg1J_4-92" value="&lt;font color=&quot;#b266ff&quot;&gt;3306&lt;/font&gt;" style="edgeLabel;html=1;align=center;verticalAlign=middle;resizable=0;points=[];" vertex="1" connectable="0" parent="Hb1TKC1Pl9qgVDZg1J_4-91">
          <mxGeometry x="0.2388" y="2" relative="1" as="geometry">
            <mxPoint as="offset" />
          </mxGeometry>
        </mxCell>
        <mxCell id="Hb1TKC1Pl9qgVDZg1J_4-93" style="edgeStyle=orthogonalEdgeStyle;rounded=0;orthogonalLoop=1;jettySize=auto;html=1;entryX=0.5;entryY=1;entryDx=0;entryDy=0;flowAnimation=1;fillColor=#fad7ac;strokeColor=#b46504;" edge="1" parent="1" source="Hb1TKC1Pl9qgVDZg1J_4-95" target="Hb1TKC1Pl9qgVDZg1J_4-89">
          <mxGeometry relative="1" as="geometry" />
        </mxCell>
        <mxCell id="Hb1TKC1Pl9qgVDZg1J_4-94" value="&lt;font color=&quot;#b266ff&quot;&gt;8080&lt;/font&gt;" style="edgeLabel;html=1;align=center;verticalAlign=middle;resizable=0;points=[];" vertex="1" connectable="0" parent="Hb1TKC1Pl9qgVDZg1J_4-93">
          <mxGeometry x="-0.0222" y="-1" relative="1" as="geometry">
            <mxPoint as="offset" />
          </mxGeometry>
        </mxCell>
        <mxCell id="Hb1TKC1Pl9qgVDZg1J_4-95" value="Shipping" style="rounded=0;whiteSpace=wrap;html=1;fillColor=#fad7ac;strokeColor=#b46504;" vertex="1" parent="1">
          <mxGeometry x="460" y="2120" width="120" height="60" as="geometry" />
        </mxCell>
        <mxCell id="Hb1TKC1Pl9qgVDZg1J_4-96" style="edgeStyle=orthogonalEdgeStyle;rounded=0;orthogonalLoop=1;jettySize=auto;html=1;entryX=1;entryY=0.5;entryDx=0;entryDy=0;flowAnimation=1;fillColor=#b0e3e6;strokeColor=#0e8088;" edge="1" parent="1" source="Hb1TKC1Pl9qgVDZg1J_4-98" target="Hb1TKC1Pl9qgVDZg1J_4-102">
          <mxGeometry relative="1" as="geometry" />
        </mxCell>
        <mxCell id="Hb1TKC1Pl9qgVDZg1J_4-97" value="&lt;font color=&quot;#b266ff&quot;&gt;5672&lt;/font&gt;" style="edgeLabel;html=1;align=center;verticalAlign=middle;resizable=0;points=[];" vertex="1" connectable="0" parent="Hb1TKC1Pl9qgVDZg1J_4-96">
          <mxGeometry x="0.1777" y="-1" relative="1" as="geometry">
            <mxPoint as="offset" />
          </mxGeometry>
        </mxCell>
        <mxCell id="Hb1TKC1Pl9qgVDZg1J_4-98" value="Payment" style="rounded=0;whiteSpace=wrap;html=1;fillColor=#b1ddf0;strokeColor=#10739e;" vertex="1" parent="1">
          <mxGeometry x="460" y="2240" width="120" height="60" as="geometry" />
        </mxCell>
        <mxCell id="Hb1TKC1Pl9qgVDZg1J_4-99" value="redis" style="rounded=0;whiteSpace=wrap;html=1;fillColor=#a20025;fontColor=#ffffff;strokeColor=#6F0000;" vertex="1" parent="1">
          <mxGeometry x="140" y="1865" width="80" height="50" as="geometry" />
        </mxCell>
        <mxCell id="Hb1TKC1Pl9qgVDZg1J_4-100" value="mongo" style="rounded=0;whiteSpace=wrap;html=1;fillColor=#6d8764;fontColor=#ffffff;strokeColor=#3A5431;" vertex="1" parent="1">
          <mxGeometry x="140" y="1730" width="80" height="53" as="geometry" />
        </mxCell>
        <mxCell id="Hb1TKC1Pl9qgVDZg1J_4-101" value="mysql" style="rounded=0;whiteSpace=wrap;html=1;fillColor=#76608a;fontColor=#ffffff;strokeColor=#432D57;" vertex="1" parent="1">
          <mxGeometry x="140" y="2125" width="80" height="50" as="geometry" />
        </mxCell>
        <mxCell id="Hb1TKC1Pl9qgVDZg1J_4-102" value="rabbit" style="rounded=0;whiteSpace=wrap;html=1;fillColor=#bac8d3;strokeColor=#23445d;" vertex="1" parent="1">
          <mxGeometry x="140" y="2245" width="80" height="50" as="geometry" />
        </mxCell>
        <mxCell id="Hb1TKC1Pl9qgVDZg1J_4-103" value="Bastion" style="rounded=0;whiteSpace=wrap;html=1;fillColor=#ffe6cc;strokeColor=#d79b00;" vertex="1" parent="1">
          <mxGeometry x="60" y="1520" width="120" height="60" as="geometry" />
        </mxCell>
        <mxCell id="Hb1TKC1Pl9qgVDZg1J_4-104" value="VPN" style="rounded=0;whiteSpace=wrap;html=1;fillColor=#fad9d5;strokeColor=#ae4132;" vertex="1" parent="1">
          <mxGeometry x="710" y="1520" width="120" height="60" as="geometry" />
        </mxCell>
        <mxCell id="Hb1TKC1Pl9qgVDZg1J_4-105" style="edgeStyle=orthogonalEdgeStyle;rounded=0;orthogonalLoop=1;jettySize=auto;html=1;exitX=0.5;exitY=1;exitDx=0;exitDy=0;entryX=0.5;entryY=0;entryDx=0;entryDy=0;flowAnimation=1;fillColor=#d5e8d4;strokeColor=#82b366;" edge="1" parent="1" source="Hb1TKC1Pl9qgVDZg1J_4-107" target="Hb1TKC1Pl9qgVDZg1J_4-110">
          <mxGeometry relative="1" as="geometry" />
        </mxCell>
        <mxCell id="Hb1TKC1Pl9qgVDZg1J_4-106" value="&lt;span style=&quot;color: rgb(0, 255, 0); font-size: 12px; background-color: rgb(251, 251, 251);&quot;&gt;80&lt;/span&gt;" style="edgeLabel;html=1;align=center;verticalAlign=middle;resizable=0;points=[];" vertex="1" connectable="0" parent="Hb1TKC1Pl9qgVDZg1J_4-105">
          <mxGeometry x="-0.1619" y="1" relative="1" as="geometry">
            <mxPoint as="offset" />
          </mxGeometry>
        </mxCell>
        <mxCell id="Hb1TKC1Pl9qgVDZg1J_4-107" value="ALB" style="rounded=0;whiteSpace=wrap;html=1;fillColor=#dae8fc;strokeColor=#6c8ebf;" vertex="1" parent="1">
          <mxGeometry x="390" y="1460" width="120" height="60" as="geometry" />
        </mxCell>
        <mxCell id="Hb1TKC1Pl9qgVDZg1J_4-108" style="edgeStyle=orthogonalEdgeStyle;rounded=0;orthogonalLoop=1;jettySize=auto;html=1;flowAnimation=1;fillColor=#d5e8d4;gradientColor=#97d077;strokeColor=#82b366;exitX=1;exitY=0.5;exitDx=0;exitDy=0;" edge="1" parent="1" source="Hb1TKC1Pl9qgVDZg1J_4-110">
          <mxGeometry relative="1" as="geometry">
            <mxPoint x="740" y="2270" as="targetPoint" />
            <mxPoint x="580" y="1610" as="sourcePoint" />
            <Array as="points">
              <mxPoint x="740" y="1610" />
            </Array>
          </mxGeometry>
        </mxCell>
        <mxCell id="Hb1TKC1Pl9qgVDZg1J_4-109" value="&lt;font color=&quot;#b266ff&quot;&gt;8080&lt;/font&gt;" style="edgeLabel;html=1;align=center;verticalAlign=middle;resizable=0;points=[];" vertex="1" connectable="0" parent="Hb1TKC1Pl9qgVDZg1J_4-108">
          <mxGeometry x="-0.4329" y="-1" relative="1" as="geometry">
            <mxPoint x="1" y="28" as="offset" />
          </mxGeometry>
        </mxCell>
        <mxCell id="Hb1TKC1Pl9qgVDZg1J_4-110" value="Frontend" style="rounded=0;whiteSpace=wrap;html=1;fillColor=#d5e8d4;strokeColor=#82b366;" vertex="1" parent="1">
          <mxGeometry x="390" y="1590" width="120" height="40" as="geometry" />
        </mxCell>
        <mxCell id="Hb1TKC1Pl9qgVDZg1J_4-111" value="" style="endArrow=classic;html=1;rounded=0;flowAnimation=1;fillColor=#fad9d5;strokeColor=#ae4132;exitX=0.511;exitY=1.133;exitDx=0;exitDy=0;exitPerimeter=0;" edge="1" parent="1" source="Hb1TKC1Pl9qgVDZg1J_4-121">
          <mxGeometry width="50" height="50" relative="1" as="geometry">
            <mxPoint x="449" y="1310" as="sourcePoint" />
            <mxPoint x="450" y="1330" as="targetPoint" />
          </mxGeometry>
        </mxCell>
        <mxCell id="Hb1TKC1Pl9qgVDZg1J_4-112" value="&lt;span style=&quot;color: rgb(255, 128, 0); font-size: 12px; background-color: rgb(251, 251, 251);&quot;&gt;1194,943,443,22&lt;/span&gt;" style="endArrow=classic;html=1;rounded=0;flowAnimation=1;fillColor=#fad7ac;strokeColor=#b46504;entryX=0.567;entryY=-0.056;entryDx=0;entryDy=0;entryPerimeter=0;" edge="1" parent="1" target="Hb1TKC1Pl9qgVDZg1J_4-104">
          <mxGeometry width="50" height="50" relative="1" as="geometry">
            <mxPoint x="450" y="1330" as="sourcePoint" />
            <mxPoint x="800" y="1390" as="targetPoint" />
            <Array as="points">
              <mxPoint x="780" y="1420" />
            </Array>
          </mxGeometry>
        </mxCell>
        <mxCell id="Hb1TKC1Pl9qgVDZg1J_4-113" value="&lt;br style=&quot;font-size: 12px; background-color: rgb(251, 251, 251);&quot;&gt;&lt;span style=&quot;font-size: 12px; color: rgb(255, 128, 0); background-color: rgb(251, 251, 251);&quot;&gt;22&lt;/span&gt;" style="endArrow=classic;html=1;rounded=0;flowAnimation=1;fillColor=#fad7ac;strokeColor=#b46504;" edge="1" parent="1">
          <mxGeometry x="0.005" y="-9" width="50" height="50" relative="1" as="geometry">
            <mxPoint x="450" y="1330" as="sourcePoint" />
            <mxPoint x="120" y="1520" as="targetPoint" />
            <Array as="points">
              <mxPoint x="120" y="1424.02" />
            </Array>
            <mxPoint y="-1" as="offset" />
          </mxGeometry>
        </mxCell>
        <mxCell id="Hb1TKC1Pl9qgVDZg1J_4-114" value="" style="endArrow=classic;html=1;rounded=0;entryX=1;entryY=0.5;entryDx=0;entryDy=0;flowAnimation=1;fillColor=#e1d5e7;strokeColor=#00CC00;" edge="1" parent="1" target="Hb1TKC1Pl9qgVDZg1J_4-95">
          <mxGeometry width="50" height="50" relative="1" as="geometry">
            <mxPoint x="740" y="2150" as="sourcePoint" />
            <mxPoint x="550" y="2030" as="targetPoint" />
          </mxGeometry>
        </mxCell>
        <mxCell id="Hb1TKC1Pl9qgVDZg1J_4-115" value="" style="endArrow=classic;html=1;rounded=0;entryX=1;entryY=0.5;entryDx=0;entryDy=0;flowAnimation=1;fillColor=#e1d5e7;strokeColor=#00CC00;" edge="1" parent="1" target="Hb1TKC1Pl9qgVDZg1J_4-86">
          <mxGeometry width="50" height="50" relative="1" as="geometry">
            <mxPoint x="740" y="1890" as="sourcePoint" />
            <mxPoint x="560" y="1490" as="targetPoint" />
          </mxGeometry>
        </mxCell>
        <mxCell id="Hb1TKC1Pl9qgVDZg1J_4-116" value="" style="endArrow=classic;html=1;rounded=0;entryX=1;entryY=0.5;entryDx=0;entryDy=0;flowAnimation=1;fillColor=#e1d5e7;strokeColor=#00FF00;" edge="1" parent="1" target="Hb1TKC1Pl9qgVDZg1J_4-89">
          <mxGeometry width="50" height="50" relative="1" as="geometry">
            <mxPoint x="740" y="2030" as="sourcePoint" />
            <mxPoint x="570" y="1500" as="targetPoint" />
          </mxGeometry>
        </mxCell>
        <mxCell id="Hb1TKC1Pl9qgVDZg1J_4-117" value="" style="endArrow=classic;html=1;rounded=0;entryX=0.983;entryY=0.633;entryDx=0;entryDy=0;flowAnimation=1;fillColor=#e1d5e7;strokeColor=#00FF00;entryPerimeter=0;" edge="1" parent="1" target="Hb1TKC1Pl9qgVDZg1J_4-90">
          <mxGeometry width="50" height="50" relative="1" as="geometry">
            <mxPoint x="740" y="1758" as="sourcePoint" />
            <mxPoint x="580" y="1510" as="targetPoint" />
          </mxGeometry>
        </mxCell>
        <mxCell id="Hb1TKC1Pl9qgVDZg1J_4-118" value="" style="endArrow=classic;html=1;rounded=0;entryX=0.5;entryY=0;entryDx=0;entryDy=0;flowAnimation=1;fillColor=#b1ddf0;strokeColor=#66B2FF;" edge="1" parent="1" target="Hb1TKC1Pl9qgVDZg1J_4-107">
          <mxGeometry width="50" height="50" relative="1" as="geometry">
            <mxPoint x="450" y="1330" as="sourcePoint" />
            <mxPoint x="520" y="1510" as="targetPoint" />
          </mxGeometry>
        </mxCell>
        <mxCell id="Hb1TKC1Pl9qgVDZg1J_4-119" value="&lt;span style=&quot;color: rgb(0, 127, 255); font-size: 12px; background-color: rgb(251, 251, 251);&quot;&gt;80,443&lt;/span&gt;" style="edgeLabel;html=1;align=center;verticalAlign=middle;resizable=0;points=[];" vertex="1" connectable="0" parent="Hb1TKC1Pl9qgVDZg1J_4-118">
          <mxGeometry x="0.2" y="1" relative="1" as="geometry">
            <mxPoint as="offset" />
          </mxGeometry>
        </mxCell>
        <mxCell id="Hb1TKC1Pl9qgVDZg1J_4-120" value="" style="endArrow=classic;html=1;rounded=0;flowAnimation=1;fillColor=#e1d5e7;strokeColor=#00CC00;" edge="1" parent="1">
          <mxGeometry width="50" height="50" relative="1" as="geometry">
            <mxPoint x="739" y="2270" as="sourcePoint" />
            <mxPoint x="580" y="2270" as="targetPoint" />
          </mxGeometry>
        </mxCell>
        <mxCell id="Hb1TKC1Pl9qgVDZg1J_4-121" value="Internet" style="text;html=1;align=center;verticalAlign=middle;resizable=0;points=[];autosize=1;strokeColor=#b85450;fillColor=#f8cecc;" vertex="1" parent="1">
          <mxGeometry x="420" y="1120" width="60" height="30" as="geometry" />
        </mxCell>
        <mxCell id="Hb1TKC1Pl9qgVDZg1J_4-122" value="" style="endArrow=classic;html=1;rounded=0;entryX=1;entryY=0.5;entryDx=0;entryDy=0;flowAnimation=1;fillColor=#e1d5e7;strokeColor=#9673a6;exitX=-0.028;exitY=0.622;exitDx=0;exitDy=0;exitPerimeter=0;" edge="1" parent="1" source="Hb1TKC1Pl9qgVDZg1J_4-90" target="Hb1TKC1Pl9qgVDZg1J_4-100">
          <mxGeometry width="50" height="50" relative="1" as="geometry">
            <mxPoint x="750" y="1768" as="sourcePoint" />
            <mxPoint x="588" y="1768" as="targetPoint" />
            <Array as="points">
              <mxPoint x="320" y="1757" />
            </Array>
          </mxGeometry>
        </mxCell>
        <mxCell id="Hb1TKC1Pl9qgVDZg1J_4-123" value="&lt;font color=&quot;#b266ff&quot;&gt;27017&lt;/font&gt;" style="edgeLabel;html=1;align=center;verticalAlign=middle;resizable=0;points=[];" vertex="1" connectable="0" parent="Hb1TKC1Pl9qgVDZg1J_4-122">
          <mxGeometry x="0.3041" y="-1" relative="1" as="geometry">
            <mxPoint as="offset" />
          </mxGeometry>
        </mxCell>
        <mxCell id="Hb1TKC1Pl9qgVDZg1J_4-124" value="" style="endArrow=classic;html=1;rounded=0;flowAnimation=1;fillColor=#a20025;strokeColor=#6F0000;" edge="1" parent="1">
          <mxGeometry width="50" height="50" relative="1" as="geometry">
            <mxPoint x="460" y="1890" as="sourcePoint" />
            <mxPoint x="220" y="1760" as="targetPoint" />
          </mxGeometry>
        </mxCell>
        <mxCell id="Hb1TKC1Pl9qgVDZg1J_4-125" value="&lt;font color=&quot;#b266ff&quot;&gt;27017&lt;/font&gt;" style="edgeLabel;html=1;align=center;verticalAlign=middle;resizable=0;points=[];" vertex="1" connectable="0" parent="Hb1TKC1Pl9qgVDZg1J_4-124">
          <mxGeometry x="0.2188" y="-1" relative="1" as="geometry">
            <mxPoint as="offset" />
          </mxGeometry>
        </mxCell>
        <mxCell id="Hb1TKC1Pl9qgVDZg1J_4-126" value="" style="endArrow=classic;html=1;rounded=0;entryX=-0.025;entryY=0.389;entryDx=0;entryDy=0;entryPerimeter=0;flowAnimation=1;fillColor=#dae8fc;strokeColor=#6c8ebf;gradientColor=#7ea6e0;" edge="1" parent="1" target="Hb1TKC1Pl9qgVDZg1J_4-90">
          <mxGeometry width="50" height="50" relative="1" as="geometry">
            <mxPoint x="457" y="2030" as="sourcePoint" />
            <mxPoint x="580" y="1980" as="targetPoint" />
            <Array as="points">
              <mxPoint x="380" y="1743" />
            </Array>
          </mxGeometry>
        </mxCell>
        <mxCell id="Hb1TKC1Pl9qgVDZg1J_4-127" value="&lt;font color=&quot;#b266ff&quot;&gt;8080&lt;/font&gt;" style="edgeLabel;html=1;align=center;verticalAlign=middle;resizable=0;points=[];" vertex="1" connectable="0" parent="Hb1TKC1Pl9qgVDZg1J_4-126">
          <mxGeometry x="0.2784" y="-1" relative="1" as="geometry">
            <mxPoint as="offset" />
          </mxGeometry>
        </mxCell>
        <mxCell id="Hb1TKC1Pl9qgVDZg1J_4-128" value="" style="endArrow=classic;html=1;rounded=0;flowAnimation=1;exitX=-0.025;exitY=0.4;exitDx=0;exitDy=0;exitPerimeter=0;fillColor=#b0e3e6;strokeColor=#0e8088;" edge="1" parent="1" source="Hb1TKC1Pl9qgVDZg1J_4-98">
          <mxGeometry width="50" height="50" relative="1" as="geometry">
            <mxPoint x="340" y="2270" as="sourcePoint" />
            <mxPoint x="520" y="2060" as="targetPoint" />
            <Array as="points">
              <mxPoint x="390" y="2110" />
            </Array>
          </mxGeometry>
        </mxCell>
        <mxCell id="Hb1TKC1Pl9qgVDZg1J_4-129" value="&lt;font color=&quot;#b266ff&quot;&gt;8080&lt;/font&gt;" style="edgeLabel;html=1;align=center;verticalAlign=middle;resizable=0;points=[];" vertex="1" connectable="0" parent="Hb1TKC1Pl9qgVDZg1J_4-128">
          <mxGeometry x="0.385" y="1" relative="1" as="geometry">
            <mxPoint as="offset" />
          </mxGeometry>
        </mxCell>
        <mxCell id="Hb1TKC1Pl9qgVDZg1J_4-130" value="" style="endArrow=classic;html=1;rounded=0;entryX=0.5;entryY=1;entryDx=0;entryDy=0;flowAnimation=1;fillColor=#b0e3e6;strokeColor=#0e8088;" edge="1" parent="1" target="Hb1TKC1Pl9qgVDZg1J_4-86">
          <mxGeometry width="50" height="50" relative="1" as="geometry">
            <mxPoint x="460" y="2270" as="sourcePoint" />
            <mxPoint x="530" y="1930" as="targetPoint" />
            <Array as="points">
              <mxPoint x="360" y="2120" />
              <mxPoint x="360" y="1960" />
            </Array>
          </mxGeometry>
        </mxCell>
        <mxCell id="Hb1TKC1Pl9qgVDZg1J_4-131" value="&lt;font color=&quot;#b266ff&quot;&gt;8080&lt;/font&gt;" style="edgeLabel;html=1;align=center;verticalAlign=middle;resizable=0;points=[];" vertex="1" connectable="0" parent="Hb1TKC1Pl9qgVDZg1J_4-130">
          <mxGeometry x="0.2099" y="1" relative="1" as="geometry">
            <mxPoint as="offset" />
          </mxGeometry>
        </mxCell>
        <mxCell id="Hb1TKC1Pl9qgVDZg1J_4-132" value="&lt;font color=&quot;#b266ff&quot;&gt;ecs-instana&lt;/font&gt;&lt;div&gt;&lt;br&gt;&lt;/div&gt;" style="points=[[0,0],[0.25,0],[0.5,0],[0.75,0],[1,0],[1,0.25],[1,0.5],[1,0.75],[1,1],[0.75,1],[0.5,1],[0.25,1],[0,1],[0,0.75],[0,0.5],[0,0.25]];outlineConnect=0;gradientColor=none;html=1;whiteSpace=wrap;fontSize=12;fontStyle=0;container=1;pointerEvents=0;collapsible=0;recursiveResize=0;shape=mxgraph.aws4.group;grIcon=mxgraph.aws4.group_vpc2;strokeColor=#8C4FFF;fillColor=none;verticalAlign=top;align=left;spacingLeft=30;fontColor=#AAB7B8;dashed=0;" vertex="1" parent="1">
          <mxGeometry x="40" y="1150" width="810" height="1200" as="geometry" />
        </mxCell>
      </root>
    </mxGraphModel>
  </diagram>
</mxfile>
